<svg xmlns="http://www.w3.org/2000/svg" xmlns:xlink="http://www.w3.org/1999/xlink" version="1.1" data-diagram-type="CLASS" style="width:279px;height:613px;background:#FFFFFF;" width="279px" height="613px" viewBox="0 0 279 613" zoomAndPan="magnify" preserveAspectRatio="none" contentStyleType="text/css"><?plantuml 1.2026.7beta5?><defs/><g font-family="sans-serif" lengthAdjust="spacing"><!--class Arbitre--><g class="entity" data-qualified-name="Arbitre" id="ent0001" data-source-line="3"><rect x="88.28" y="7" width="176.459" height="178.375" fill="#F1F1F1" style="stroke:#181818;stroke-width:0.5;" rx="2.5" ry="2.5"/><ellipse cx="148.276" cy="23" rx="11" ry="11" fill="#ADD1B2" style="stroke:#181818;stroke-width:1;"/><path d="M151.244,28.641 Q150.666,28.938 150.026,29.078 Q149.385,29.234 148.682,29.234 Q146.182,29.234 144.854,27.594 Q143.541,25.938 143.541,22.813 Q143.541,19.688 144.854,18.031 Q146.182,16.375 148.682,16.375 Q149.385,16.375 150.026,16.531 Q150.682,16.688 151.244,16.984 L151.244,19.703 Q150.619,19.125 150.026,18.859 Q149.432,18.578 148.807,18.578 Q147.463,18.578 146.776,19.656 Q146.088,20.719 146.088,22.813 Q146.088,24.906 146.776,25.984 Q147.463,27.047 148.807,27.047 Q149.432,27.047 150.026,26.781 Q150.619,26.5 151.244,25.922 L151.244,28.641 Z " fill="#000"/><text x="168.776" y="27.847" fill="#000" font-size="14" textLength="47.968">Arbitre</text><line x1="89.28" y1="39" x2="263.739" y2="39" style="stroke:#181818;stroke-width:0.5;"/><text x="94.28" y="55.995" fill="#000" font-size="14" textLength="88.484">+id : Integer</text><text x="94.28" y="72.292" fill="#000" font-size="14" textLength="98.205">+nom : String</text><text x="94.28" y="88.589" fill="#000" font-size="14" textLength="121.461">+prenom : String</text><text x="94.28" y="104.886" fill="#000" font-size="14" textLength="141.859">+nationalite : String</text><text x="94.28" y="121.183" fill="#000" font-size="14" textLength="164.459">+confederation : String</text><text x="94.28" y="137.479" fill="#000" font-size="14" textLength="133.219">+categorie : String</text><text x="94.28" y="153.776" fill="#000" font-size="14" textLength="153.549">+experience : Integer</text><text x="94.28" y="170.073" fill="#000" font-size="14" textLength="108.343">+statut : String</text><line x1="89.28" y1="177.375" x2="263.739" y2="177.375" style="stroke:#181818;stroke-width:0.5;"/></g><!--class Match--><g class="entity" data-qualified-name="Match" id="ent0002" data-source-line="14"><rect x="7" y="262.37" width="191.013" height="162.078" fill="#F1F1F1" style="stroke:#181818;stroke-width:0.5;" rx="2.5" ry="2.5"/><ellipse cx="76.897" cy="278.37" rx="11" ry="11" fill="#ADD1B2" style="stroke:#181818;stroke-width:1;"/><path d="M79.866,284.011 Q79.288,284.308 78.647,284.448 Q78.007,284.604 77.304,284.604 Q74.804,284.604 73.476,282.964 Q72.163,281.308 72.163,278.183 Q72.163,275.058 73.476,273.401 Q74.804,271.745 77.304,271.745 Q78.007,271.745 78.647,271.901 Q79.304,272.058 79.866,272.354 L79.866,275.073 Q79.241,274.495 78.647,274.229 Q78.054,273.948 77.429,273.948 Q76.085,273.948 75.397,275.026 Q74.71,276.089 74.71,278.183 Q74.71,280.276 75.397,281.354 Q76.085,282.417 77.429,282.417 Q78.054,282.417 78.647,282.151 Q79.241,281.87 79.866,281.292 L79.866,284.011 Z " fill="#000"/><text x="97.397" y="283.217" fill="#000" font-size="14" textLength="42.718">Match</text><line x1="8" y1="294.37" x2="197.013" y2="294.37" style="stroke:#181818;stroke-width:0.5;"/><text x="13" y="311.365" fill="#000" font-size="14" textLength="88.484">+id : Integer</text><text x="13" y="327.662" fill="#000" font-size="14" textLength="175.854">+equipeDomicile : String</text><text x="13" y="343.959" fill="#000" font-size="14" textLength="179.013">+equipeExterieur : String</text><text x="13" y="360.256" fill="#000" font-size="14" textLength="105.991">+stade : String</text><text x="13" y="376.553" fill="#000" font-size="14" textLength="128.892">+villeHote : String</text><text x="13" y="392.849" fill="#000" font-size="14" textLength="133.096">+dateMatch : Date</text><text x="13" y="409.146" fill="#000" font-size="14" textLength="109.375">+phase : String</text><line x1="8" y1="416.448" x2="197.013" y2="416.448" style="stroke:#181818;stroke-width:0.5;"/></g><!--class Affectation--><g class="entity" data-qualified-name="Affectation" id="ent0003" data-source-line="24"><rect x="102.66" y="485.45" width="147.693" height="113.188" fill="#F1F1F1" style="stroke:#181818;stroke-width:0.5;" rx="2.5" ry="2.5"/><ellipse cx="135.238" cy="501.45" rx="11" ry="11" fill="#ADD1B2" style="stroke:#181818;stroke-width:1;"/><path d="M138.207,507.091 Q137.629,507.388 136.988,507.528 Q136.348,507.684 135.644,507.684 Q133.144,507.684 131.816,506.044 Q130.504,504.388 130.504,501.263 Q130.504,498.138 131.816,496.481 Q133.144,494.825 135.644,494.825 Q136.348,494.825 136.988,494.981 Q137.644,495.138 138.207,495.434 L138.207,498.153 Q137.582,497.575 136.988,497.309 Q136.394,497.028 135.769,497.028 Q134.426,497.028 133.738,498.106 Q133.051,499.169 133.051,501.263 Q133.051,503.356 133.738,504.434 Q134.426,505.497 135.769,505.497 Q136.394,505.497 136.988,505.231 Q137.582,504.95 138.207,504.372 L138.207,507.091 Z " fill="#000"/><text x="153.144" y="506.297" fill="#000" font-size="14" textLength="76.631">Affectation</text><line x1="103.66" y1="517.45" x2="249.353" y2="517.45" style="stroke:#181818;stroke-width:0.5;"/><text x="108.66" y="534.445" fill="#000" font-size="14" textLength="88.484">+id : Integer</text><text x="108.66" y="550.742" fill="#000" font-size="14" textLength="135.693">+arbitreId : Integer</text><text x="108.66" y="567.039" fill="#000" font-size="14" textLength="133">+matchId : Integer</text><text x="108.66" y="583.336" fill="#000" font-size="14" textLength="93.953">+role : String</text><line x1="103.66" y1="590.638" x2="249.353" y2="590.638" style="stroke:#181818;stroke-width:0.5;"/></g><!--link Arbitre to Affectation--><g class="link" data-entity-1="ent0001" data-entity-2="ent0003" id="lnk4" data-source-line="31" data-link-type="association"><path d="M220.97,185.86 C224.45,195.63 227.41,205.59 229.51,215.37 C249.61,309.34 220.61,420 198.23,485.12" style="stroke:#181818;stroke-width:1;" fill="none" id="Arbitre-Affectation" codeLine="31"/><text x="216.078" y="205.372" fill="#000" font-size="13">1</text><text x="176.478" y="474.343" fill="#000" font-size="13" textLength="23.036">0..*</text></g><!--link Match to Affectation--><g class="link" data-entity-1="ent0002" data-entity-2="ent0003" id="lnk5" data-source-line="32" data-link-type="association"><path d="M132.71,424.68 C140.34,444.96 148.38,466.3 155.45,485.09" style="stroke:#181818;stroke-width:1;" fill="none" id="Match-Affectation" codeLine="32"/><text x="126.974" y="444.381" fill="#000" font-size="13">1</text><text x="128.484" y="474.31" fill="#000" font-size="13" textLength="23.036">0..*</text></g><!--link Arbitre to Match--><g class="link" data-entity-1="ent0001" data-entity-2="ent0002" id="lnk6" data-source-line="34" data-link-type="association"><path d="M131.98,185.83 C128.04,195.65 124.44,205.62 121.51,215.37 C117.04,230.22 113.61,246.36 110.96,262.01" style="stroke:#181818;stroke-width:1;" fill="none" id="Arbitre-Match" codeLine="34"/><text x="122.51" y="228.437" fill="#000" font-size="13" textLength="102.089">belongsToMany</text><text x="104.692" y="205.339" fill="#000" font-size="13" textLength="23.036">0..*</text><text x="87.7" y="251.443" fill="#000" font-size="13" textLength="23.036">0..*</text></g><?plantuml-src TL71ReCm3Btp5HR7JQtQQsz8dJGEFNK_O8AXraB24bDrc_Rl2qI81R5R_DwBtxFjtzdqwB03fT7xGiHnDGYLofehVn4SicnYe70LYoFupW2UkOOJb4Qe9JVMndO1k8RFfXthtj4QCYXi3MeMIl1Wr51DRg9J1aD_wpZLqwEdW1b5QGGlA8Ciqfyv-0L5tRPZqyV0FPrjnuhrocQYNXuocWqkuO9LdQhlh3MzsjLeTHWWkf_W7DxJPcxeQIDbqJIa92vXCol6_PShk1lxhq5dTUen7oy_vh3RGNxOxv_olvvPpFa_lxI8tAAQ9wn8MzFwDtj1y_aB?></g></svg>